<svg width="585" height="323" viewBox="0 0 585 323" fill="none" xmlns="http://www.w3.org/2000/svg">
<path d="M435.5 109.5C356.605 178.309 244.836 211.313 148.5 239.5C148.5 239.5 129 203 129 167C67.1041 195.993 -22.6492 267.533 6.06866 297.581C42.4223 335.618 184.429 294.418 336.476 220.616C451.319 166.319 589.887 57.7259 562.389 12.391C547.538 -12.0936 482.626 11.2055 399.5 49.5C414.055 63.5664 426.5 86 435.5 109.5Z" fill="white"/>
<ellipse cx="286.321" cy="161.5" rx="157.5" ry="161.5" fill="url(#paint0_linear_3_4)"/>
<g clip-path="url(#clip0_3_4)">
<path d="M253.536 56C259.857 56 264.964 61.1071 264.964 67.4286V78.8571H310.679V67.4286C310.679 61.1071 315.786 56 322.107 56C328.429 56 333.536 61.1071 333.536 67.4286V78.8571H350.679C360.143 78.8571 367.821 86.5357 367.821 96V113.143H207.821V96C207.821 86.5357 215.5 78.8571 224.964 78.8571H242.107V67.4286C242.107 61.1071 247.214 56 253.536 56ZM207.821 124.571H367.821V221.714C367.821 231.179 360.143 238.857 350.679 238.857H224.964C215.5 238.857 207.821 231.179 207.821 221.714V124.571ZM236.393 147.429C233.25 147.429 230.679 150 230.679 153.143V187.429C230.679 190.571 233.25 193.143 236.393 193.143H270.679C273.821 193.143 276.393 190.571 276.393 187.429V153.143C276.393 150 273.821 147.429 270.679 147.429H236.393Z" fill="#1A1332"/>
</g>
<path d="M435.5 109.5C356.605 178.309 244.836 211.313 148.5 239.5C148.5 239.5 129 203 129 167C67.1041 195.993 -22.6492 267.533 6.06866 297.581C42.4223 335.618 184.429 294.418 336.476 220.616C451.319 166.319 589.887 57.7259 562.389 12.391C547.538 -12.0936 482.626 11.2055 399.5 49.5C414.055 63.5664 426.5 86 435.5 109.5Z" fill="white" fill-opacity="0.3"/>
<defs>
<linearGradient id="paint0_linear_3_4" x1="286.321" y1="0" x2="286.321" y2="323" gradientUnits="userSpaceOnUse">
<stop stop-color="white"/>
</linearGradient>
<clipPath id="clip0_3_4">
<rect width="160" height="182.857" fill="white" transform="translate(207.821 56)"/>
</clipPath>
</defs>
</svg>
